<svg display="none" xmlns="http://www.w3.org/2000/svg">
  <symbol id="vk" viewBox="0 0 16 9">
    <g>
        <path d="M13.77 5.722c.531.516 1.091 1 1.567 1.567.21.252.41.512.562.805.216.415.02.873-.355.897h-2.33c-.602.049-1.081-.192-1.485-.6-.322-.327-.621-.675-.932-1.012a2.204 2.204 0 0 0-.419-.37c-.318-.206-.594-.144-.776.186-.185.336-.227.708-.246 1.082-.025.545-.19.689-.742.713-1.178.056-2.296-.121-3.335-.712-.916-.521-1.626-1.256-2.245-2.089C1.831 4.569.91 2.787.081.956-.106.543.03.322.488.314 1.25.299 2.01.3 2.771.313c.309.004.513.18.633.47a14.045 14.045 0 0 0 1.546 2.85c.169.236.34.472.585.638.27.184.476.123.603-.176.08-.19.116-.394.134-.598.06-.699.068-1.397-.037-2.094C6.17.968 5.923.686 5.487.604c-.223-.042-.19-.124-.082-.25C5.592.135 5.768 0 6.12 0h2.634c.415.081.507.266.564.681L9.32 3.59c-.005.16.08.637.372.743.233.076.386-.11.526-.256.63-.666 1.08-1.452 1.483-2.266.178-.358.332-.73.48-1.102.11-.275.284-.411.596-.405l2.535.002c.076 0 .152.001.224.013.428.073.545.256.413.67-.208.65-.613 1.193-1.008 1.738-.423.581-.875 1.143-1.294 1.728-.386.534-.355.804.123 1.267z"/>
    </g>
  </symbol>
  <symbol id="facebook" viewBox="0 0 8 16">
    <g>
        <path d="M7.698.003L5.78-.001C3.624 0 2.23 1.545 2.23 3.937v1.815H.301C.136 5.752 0 5.9 0 6.08v2.63c0 .181.135.327.302.327H2.23v6.638c0 .18.135.326.302.326H5.05c.166 0 .301-.146.301-.326V9.036h2.256c.167 0 .302-.146.302-.326V6.08a.341.341 0 0 0-.088-.232.292.292 0 0 0-.213-.096H5.35V4.214c0-.74.164-1.116 1.054-1.116h1.293c.167 0 .302-.146.302-.326V.329c0-.18-.135-.326-.302-.326z"/>    
    </g>
  </symbol>
  <symbol id="youtube" viewBox="0 0 16 11">
    <g>
        <path d="M16 4.147v2.706c0 1.715-.277 2.707-.926 3.313-.634.592-1.612.834-3.378.834H4.304C.665 11 0 9.603 0 6.853V4.147C0 2.727 0 1.7.56 1.005 1.137.29 2.22 0 4.305 0h7.392c2.036 0 3.103.273 3.68.944.58.674.624 1.705.624 3.203zm-5.451 1.279a.503.503 0 0 0-.278-.447L6.914 3.276a.528.528 0 0 0-.506.017.502.502 0 0 0-.248.43V7.14c0 .177.094.34.249.432a.525.525 0 0 0 .506.015l3.357-1.714a.502.502 0 0 0 .277-.447z"/>    
    </g>
  </symbol>
  <symbol id="twitter" viewBox="0 0 16 13">
    <g>
        <path d="M15.559.24a6.598 6.598 0 0 1-2.086.797A3.283 3.283 0 0 0 7.88 4.03 9.319 9.319 0 0 1 1.114.6a3.26 3.26 0 0 0-.443 1.65A3.28 3.28 0 0 0 2.13 4.98 3.278 3.278 0 0 1 .643 4.57v.04a3.287 3.287 0 0 0 2.632 3.22 3.324 3.324 0 0 1-1.483.055 3.288 3.288 0 0 0 3.066 2.28A6.586 6.586 0 0 1 .783 11.57c-.265 0-.526-.016-.783-.045A9.297 9.297 0 0 0 5.03 13c6.038 0 9.34-5.002 9.34-9.34l-.011-.425A6.607 6.607 0 0 0 16 1.538c-.589.26-1.22.438-1.885.517A3.301 3.301 0 0 0 15.56.24z"/>    
    </g>
  </symbol>
  <symbol id="google" viewBox="0 0 16 16">
    <g>
        <path d="M 8.363281 6.824219 L 8.363281 9.375 L 11.992188 9.375 C 11.519531 10.917969 10.230469 12.019531 8.363281 12.019531 C 6.140625 12.019531 4.339844 10.21875 4.339844 8 C 4.339844 5.78125 6.140625 3.980469 8.363281 3.980469 C 9.363281 3.980469 10.273438 4.34375 10.976562 4.949219 L 12.851562 3.070312 C 11.667969 1.992188 10.09375 1.332031 8.363281 1.332031 C 4.679688 1.332031 1.695312 4.316406 1.695312 8 C 1.695312 11.683594 4.679688 14.667969 8.363281 14.667969 C 13.960938 14.667969 15.195312 9.433594 14.648438 6.835938 Z M 8.363281 6.824219 "/>
    </g>
  </symbol>
  <symbol id="wezom" viewBox="0 0 42 15">
    <g>
        <path d="M.808.82a2.749 2.749 0 0 1 3.943 0l7.144 7.287 6.87-7.009a2.751 2.751 0 0 1 2.229-1.112c.72-.004 1.44.273 1.988.833.087.09.167.182.24.28l6.87 7.007L37.238.82a2.749 2.749 0 0 1 3.943 0 2.884 2.884 0 0 1 0 4.023l-8.859 9.039c-.073.096-.153.19-.24.278-.549.56-1.269.837-1.988.833a2.752 2.752 0 0 1-2.228-1.111l-6.871-7.01-6.871 7.01c-.073.097-.153.19-.24.278-.548.56-1.269.837-1.988.833a2.752 2.752 0 0 1-2.228-1.112L.807 4.842a2.884 2.884 0 0 1 0-4.023z"/>    
    </g>
  </symbol>
  <symbol id="burger" viewBox="0 0 14 10">
    <g>
        <path d="M0 2V0h10v2zm0 4V4h14v2zm0 4V8h7v2z"/>    
    </g>
  </symbol>
  <symbol id="arrow_right" viewBox="0 0 8 14">
    <g>
        <path d="M2.586.964l4.95 4.95c.299.299.445.693.439 1.086.006.392-.14.786-.44 1.085l-4.95 4.95a1.5 1.5 0 0 1-2.12-2.121L4.378 7 .464 3.085A1.5 1.5 0 0 1 2.586.964z"/>    
    </g>
  </symbol>
  <symbol id="select_arrow" viewBox="0 0 6 5">
    <g>
        <path fill="#8c8c8c" d="M3 5L0 0h6L3 5"/>    
    </g>
  </symbol>
  <symbol id="long_arrow_right" viewBox="0 0 15 3">
    <g>
        <path fill="#ff8500" d="M0 2V1h12v1z"/>
        <path fill="#ff8500" d="M15 1.5L12 0v3l3-1.5"/> 
    </g>
  </symbol>
  <symbol id="star" viewBox="0 0 15 14">
    <g>
        <path d="M7.5 0l2.472 4.4 5.027.948-3.5 3.666.636 4.985L7.5 11.866l-4.635 2.133.635-4.985L0 5.348l5.028-.949L7.5 0"/>   
    </g>
  </symbol>
  <symbol id="close" viewBox="0 0 13 13">
    <g>
        <path d="M.646 1.353l.707-.707L6.5 5.792 11.646.646l.708.707-5.147 5.146 5.147 5.147-.708.707L6.5 7.207l-5.147 5.146-.707-.707 5.147-5.147z"/>  
    </g>
  </symbol>
  <symbol id="search" viewBox="0 0 48 48">
    <g>
        <path d="M 20.5 6 C 12.515556 6 6 12.515562 6 20.5 C 6 28.484438 12.515556 35 20.5 35 C 23.773158 35 26.788919 33.893018 29.220703 32.050781 L 38.585938 41.414062 A 2.0002 2.0002 0 1 0 41.414062 38.585938 L 32.050781 29.220703 C 33.893017 26.788918 35 23.773156 35 20.5 C 35 12.515562 28.484444 6 20.5 6 z M 20.5 10 C 26.322685 10 31 14.677319 31 20.5 C 31 23.295711 29.914065 25.820601 28.148438 27.697266 A 2.0002 2.0002 0 0 0 27.701172 28.144531 C 25.824103 29.912403 23.29771 31 20.5 31 C 14.677315 31 10 26.322681 10 20.5 C 10 14.677319 14.677315 10 20.5 10 z"/>  
    </g>
  </symbol>
</svg>